#VRML V2.0 utf8

Shape {
  appearance Appearance {
    material Material {
      diffuseColor 0.1490 0.1490 0.1490
      specularColor 0.0745 0.0745 0.0745
      ambientIntensity 0.2
      transparency 0.0000
      shininess 0.5
    }
  }
  geometry IndexedFaceSet {
    ccw TRUE
    solid FALSE
    coord DEF co Coordinate {
      point [
        1.500000 -0.397234 0.000000,
        1.500000 -0.471936 0.000000,
        1.196850 -0.492126 0.000000,
        1.659499 -0.284706 0.000000,
        1.653452 -0.255886 0.000000,
        1.659499 -0.209469 0.000000,
        1.643463 -0.239768 0.000000,
        1.634757 -0.230578 0.000000,
        1.659499 -0.492126 0.000000,
        1.657480 -0.471936 0.000000,
        1.657480 -0.457803 0.000000,
        1.636731 -0.330126 0.000000,
        1.614742 -0.354538 0.000000,
        1.645367 -0.295213 0.000000,
        1.584905 -0.364679 0.000000,
        1.578582 -0.364930 0.000000,
        1.546128 -0.356772 0.000000,
        1.523319 -0.334974 0.000000,
        1.512611 -0.303985 0.000000,
        1.528991 -0.225621 0.000000,
        1.628583 -0.225621 0.000000,
        1.538361 -0.237987 0.000000,
        1.619120 -0.237987 0.000000,
        1.518786 -0.263115 0.000000,
        1.638907 -0.263502 0.000000,
        1.512114 -0.294235 0.000000,
        1.643683 -0.278374 0.000000,
        1.645117 -0.288698 0.000000,
        1.196850 -0.209469 0.000000,
        1.504166 -0.255838 0.000000,
        1.498056 -0.273744 0.000000,
        1.619891 -0.368922 0.000000,
        1.579655 -0.379063 0.000000,
        1.516152 -0.457803 0.000000,
        1.549710 -0.374276 0.000000,
        1.516152 -0.397234 0.000000,
        1.523502 -0.359094 0.000000,
        1.518189 -0.354103 0.000000,
        1.496246 -0.286246 0.000000,
        1.495962 -0.294140 0.000000,
        1.502366 -0.329809 0.000000,
        1.510740 -0.345135 0.000000,
        1.659499 -0.306844 0.000000,
        1.661271 -0.301293 0.000000,
        1.803150 -0.209469 0.000000,
        1.661519 -0.294329 0.000000,
        1.648283 -0.341988 0.000000,
        1.803150 -0.492126 0.000000,
        1.500000 0.207229 0.000000,
        1.550474 0.183948 0.000000,
        1.550474 0.112558 0.000000,
        1.537067 0.044077 0.000000,
        1.512920 0.024067 0.000000,
        1.500000 0.073188 0.000000,
        1.641328 -0.104482 0.000000,
        1.641328 -0.179184 0.000000,
        1.592873 -0.179184 0.000000,
        1.500000 0.088614 0.000000,
        1.196850 0.492126 0.000000,
        1.592873 -0.104482 0.000000,
        1.576721 -0.104482 0.000000,
        1.500000 -0.076217 0.000000,
        1.500000 -0.104482 0.000000,
        1.500000 -0.193317 0.000000,
        1.659499 0.492126 0.000000,
        1.657480 0.147890 0.000000,
        1.500000 0.222593 0.000000,
        1.657480 0.149909 0.000000,
        1.657480 -0.193317 0.000000,
        1.657480 -0.104482 0.000000,
        1.651802 0.005552 0.000000,
        1.632711 0.033929 0.000000,
        1.601476 0.050054 0.000000,
        1.576753 0.052998 0.000000,
        1.501265 -0.007211 0.000000,
        1.500000 -0.027414 0.000000,
        1.516152 -0.104482 0.000000,
        1.516152 -0.179184 0.000000,
        1.576721 -0.179184 0.000000,
        1.657480 -0.076217 0.000000,
        1.657480 -0.044418 0.000000,
        1.656517 -0.019191 0.000000,
        1.803150 0.492126 0.000000,
        1.955709 -0.492126 0.183071,
        2.625984 -0.492126 0.366142,
        2.374016 -0.492126 0.366142,
        2.044291 -0.492126 0.183071,
        1.625984 -0.492126 0.366142,
        1.374016 -0.492126 0.366142,
        1.044291 -0.492126 0.183071,
        -2.812992 -0.492126 0.011811,
        -2.812992 -0.492126 0.183071,
        -2.955709 -0.492126 0.183071,
        0.625984 -0.492126 0.366142,
        0.374016 -0.492126 0.366142,
        0.044291 -0.492126 0.183071,
        0.803150 -0.492126 -0.000000,
        0.955709 -0.492126 0.183071,
        0.196850 -0.492126 -0.000000,
        0.000000 -0.492126 0.236220,
        0.374016 -0.492126 0.618110,
        0.000000 -0.492126 0.748031,
        1.000000 -0.492126 0.236220,
        0.625984 -0.492126 0.618110,
        -0.625984 -0.492126 0.618110,
        -1.000000 -0.492126 0.236220,
        -0.625984 -0.492126 0.366142,
        -0.955709 -0.492126 0.183071,
        -0.374016 -0.492126 0.366142,
        -0.374016 -0.492126 0.618110,
        -0.196850 -0.492126 0.984252,
        -0.044291 -0.492126 0.183071,
        -0.803150 -0.492126 -0.000000,
        -0.196850 -0.492126 -0.000000,
        -1.625984 -0.492126 0.618110,
        -2.000000 -0.492126 0.236220,
        -1.625984 -0.492126 0.366142,
        -1.955709 -0.492126 0.183071,
        -1.374016 -0.492126 0.366142,
        -1.374016 -0.492126 0.618110,
        -1.196850 -0.492126 0.984252,
        -1.000000 -0.492126 0.748031,
        -1.044291 -0.492126 0.183071,
        -0.803150 -0.492126 0.984252,
        -1.803150 -0.492126 -0.000000,
        -1.196850 -0.492126 -0.000000,
        -2.812992 -0.492126 0.972441,
        -2.625984 -0.492126 0.618110,
        -2.803150 -0.492126 0.984252,
        -2.374016 -0.492126 0.618110,
        -2.196850 -0.492126 0.984252,
        -2.000000 -0.492126 0.748031,
        -2.374016 -0.492126 0.366142,
        -2.044291 -0.492126 0.183071,
        -1.803150 -0.492126 0.984252,
        -2.803150 -0.492126 -0.000000,
        -2.196850 -0.492126 0.000000,
        -2.625984 -0.492126 0.366142,
        -3.000000 -0.492126 0.236220,
        -3.000000 -0.492126 0.748031,
        1.374016 -0.492126 0.618110,
        1.000000 -0.492126 0.748031,
        0.803150 -0.492126 0.984252,
        0.196850 -0.492126 0.984252,
        2.000000 -0.492126 0.236220,
        1.625984 -0.492126 0.618110,
        2.374016 -0.492126 0.618110,
        2.196850 -0.492126 0.984252,
        2.000000 -0.492126 0.748031,
        1.803150 -0.492126 0.984252,
        1.196850 -0.492126 0.984252,
        2.803150 -0.492126 0.984252,
        2.625984 -0.492126 0.618110,
        3.000000 -0.492126 0.748031,
        3.000000 -0.492126 0.236220,
        2.955709 -0.492126 0.183071,
        2.196850 -0.492126 -0.000000,
        2.803150 -0.492126 -0.000000,
        0.625984 0.295276 0.618110,
        0.374016 0.295276 0.618110,
        0.000000 0.295276 0.742126,
        1.625984 0.295276 0.618110,
        2.000000 0.295276 0.236220,
        1.625984 0.295276 0.366142,
        1.901575 0.295276 0.118110,
        1.374016 0.295276 0.366142,
        1.098425 0.295276 0.118110,
        1.000000 0.295276 0.236220,
        1.374016 0.295276 0.618110,
        1.000000 0.295276 0.742126,
        2.000000 0.295276 0.742126,
        2.625984 0.295276 0.618110,
        3.000000 0.295276 0.236220,
        2.625984 0.295276 0.366142,
        2.901575 0.295276 0.118110,
        2.374016 0.295276 0.366142,
        2.098425 0.295276 0.118110,
        2.374016 0.295276 0.618110,
        3.000000 0.295276 0.742126,
        2.098425 0.295276 0.866142,
        2.901575 0.295276 0.866142,
        2.000000 0.295276 0.748031,
        3.000000 0.295276 0.748031,
        1.098425 0.295276 0.866142,
        1.901575 0.295276 0.866142,
        1.000000 0.295276 0.748031,
        0.098425 0.295276 0.866142,
        0.901575 0.295276 0.866142,
        0.000000 0.295276 0.748031,
        -0.901575 0.295276 0.866142,
        -0.098425 0.295276 0.866142,
        -1.000000 0.295276 0.748031,
        -1.901575 0.295276 0.866142,
        -1.098425 0.295276 0.866142,
        -2.000000 0.295276 0.748031,
        -2.901575 0.295276 0.866142,
        -2.812992 0.295276 0.866142,
        -3.000000 0.295276 0.748031,
        -2.812992 0.295276 0.742126,
        -3.000000 0.295276 0.742126,
        -2.812992 0.295276 0.118110,
        -2.901575 0.295276 0.118110,
        -3.000000 0.295276 0.236220,
        -2.374016 0.295276 0.618110,
        -2.000000 0.295276 0.236220,
        -2.374016 0.295276 0.366142,
        -2.098425 0.295276 0.118110,
        -2.625984 0.295276 0.366142,
        -2.625984 0.295276 0.618110,
        -2.000000 0.295276 0.742126,
        -1.374016 0.295276 0.618110,
        -1.000000 0.295276 0.236220,
        -1.374016 0.295276 0.366142,
        -1.098425 0.295276 0.118110,
        -1.625984 0.295276 0.366142,
        -1.901575 0.295276 0.118110,
        -1.625984 0.295276 0.618110,
        -1.000000 0.295276 0.742126,
        -0.374016 0.295276 0.618110,
        0.000000 0.295276 0.236220,
        -0.374016 0.295276 0.366142,
        -0.098425 0.295276 0.118110,
        -0.625984 0.295276 0.366142,
        -0.901575 0.295276 0.118110,
        -0.625984 0.295276 0.618110,
        0.374016 0.295276 0.366142,
        -2.098425 0.295276 0.866142,
        0.625984 0.295276 0.366142,
        0.901575 0.295276 0.118110,
        0.098425 0.295276 0.118110,
        0.803150 0.492126 -0.000000,
        0.196850 0.492126 -0.000000,
        0.901575 0.492126 0.118110,
        0.098425 0.492126 0.118110,
        1.098425 0.492126 0.118110,
        1.901575 0.492126 0.118110,
        -1.901575 0.492126 0.118110,
        -1.098425 0.492126 0.118110,
        -1.803150 0.492126 -0.000000,
        -1.196850 0.492126 -0.000000,
        -0.901575 0.492126 0.118110,
        -0.098425 0.492126 0.118110,
        -0.803150 0.492126 -0.000000,
        -0.196850 0.492126 -0.000000,
        0.901575 0.492126 0.866142,
        0.098425 0.492126 0.866142,
        0.803150 0.492126 0.984252,
        0.196850 0.492126 0.984252,
        1.196850 0.492126 0.984252,
        1.803150 0.492126 0.984252,
        1.098425 0.492126 0.866142,
        1.901575 0.492126 0.866142,
        -1.098425 0.492126 0.866142,
        -1.901575 0.492126 0.866142,
        -1.196850 0.492126 0.984252,
        -1.803150 0.492126 0.984252,
        -0.803150 0.492126 0.984252,
        -0.196850 0.492126 0.984252,
        -0.901575 0.492126 0.866142,
        -0.098425 0.492126 0.866142,
        -2.098425 0.492126 0.118110,
        -2.196850 0.492126 -0.000000,
        -2.901575 0.492126 0.118110,
        -2.803150 0.492126 0.000000,
        2.098425 0.492126 0.118110,
        2.901575 0.492126 0.118110,
        2.196850 0.492126 -0.000000,
        2.803150 0.492126 -0.000000,
        2.196850 0.492126 0.984252,
        2.803150 0.492126 0.984252,
        2.098425 0.492126 0.866142,
        2.901575 0.492126 0.866142,
        -2.196850 0.492126 0.984252,
        -2.803150 0.492126 0.984252,
        -2.901575 0.492126 0.866142,
        -2.098425 0.492126 0.866142,
      ]
    }
    coordIndex [
      0, 1, 2, -1,
      3, 4, 5, -1,
      5, 4, 6, -1,
      5, 6, 7, -1,
      2, 1, 8, -1,
      8, 1, 9, -1,
      8, 9, 10, -1,
      11, 12, 13, -1,
      13, 12, 14, -1,
      13, 14, 15, -1,
      15, 16, 13, -1,
      13, 16, 17, -1,
      13, 17, 18, -1,
      19, 20, 21, -1,
      21, 20, 22, -1,
      21, 22, 23, -1,
      23, 22, 24, -1,
      23, 24, 25, -1,
      25, 24, 26, -1,
      25, 26, 18, -1,
      18, 26, 27, -1,
      18, 27, 13, -1,
      7, 20, 5, -1,
      5, 20, 19, -1,
      5, 19, 28, -1,
      28, 19, 29, -1,
      28, 29, 30, -1,
      31, 10, 32, -1,
      32, 10, 33, -1,
      32, 33, 34, -1,
      34, 33, 35, -1,
      34, 35, 36, -1,
      36, 35, 37, -1,
      30, 38, 28, -1,
      28, 38, 39, -1,
      28, 39, 40, -1,
      2, 28, 0, -1,
      0, 28, 40, -1,
      0, 40, 35, -1,
      35, 40, 41, -1,
      35, 41, 37, -1,
      42, 43, 44, -1,
      44, 43, 45, -1,
      31, 46, 10, -1,
      10, 46, 42, -1,
      10, 42, 8, -1,
      8, 42, 44, -1,
      8, 44, 47, -1,
      48, 49, 50, -1,
      51, 52, 53, -1,
      54, 55, 56, -1,
      57, 53, 58, -1,
      59, 60, 61, -1,
      62, 63, 28, -1,
      64, 5, 65, -1,
      50, 57, 48, -1,
      48, 57, 58, -1,
      48, 58, 66, -1,
      66, 58, 64, -1,
      66, 64, 67, -1,
      67, 64, 65, -1,
      28, 63, 5, -1,
      5, 63, 68, -1,
      5, 68, 69, -1,
      70, 71, 65, -1,
      65, 71, 72, -1,
      65, 72, 53, -1,
      53, 72, 73, -1,
      53, 73, 51, -1,
      52, 74, 53, -1,
      53, 74, 75, -1,
      53, 75, 58, -1,
      58, 75, 61, -1,
      28, 58, 62, -1,
      62, 58, 61, -1,
      62, 61, 76, -1,
      76, 61, 60, -1,
      76, 60, 77, -1,
      77, 60, 78, -1,
      56, 59, 54, -1,
      54, 59, 61, -1,
      54, 61, 69, -1,
      69, 61, 79, -1,
      69, 79, 5, -1,
      5, 79, 80, -1,
      5, 80, 65, -1,
      65, 80, 81, -1,
      65, 81, 70, -1,
      64, 82, 5, -1,
      5, 82, 44, -1,
      5, 44, 3, -1,
      3, 44, 45, -1,
      8, 47, 83, -1,
      84, 85, 86, -1,
      87, 88, 89, -1,
      90, 91, 92, -1,
      93, 94, 95, -1,
      96, 97, 98, -1,
      98, 97, 95, -1,
      95, 94, 99, -1,
      99, 94, 100, -1,
      99, 100, 101, -1,
      95, 97, 93, -1,
      93, 97, 102, -1,
      93, 102, 103, -1,
      104, 105, 106, -1,
      106, 105, 107, -1,
      106, 107, 108, -1,
      104, 109, 110, -1,
      110, 109, 101, -1,
      101, 109, 99, -1,
      99, 109, 108, -1,
      99, 108, 111, -1,
      108, 107, 111, -1,
      111, 107, 112, -1,
      111, 112, 113, -1,
      114, 115, 116, -1,
      116, 115, 117, -1,
      116, 117, 118, -1,
      114, 119, 120, -1,
      120, 119, 121, -1,
      118, 122, 105, -1,
      110, 123, 104, -1,
      104, 123, 121, -1,
      104, 121, 105, -1,
      105, 121, 119, -1,
      105, 119, 118, -1,
      118, 117, 122, -1,
      122, 117, 124, -1,
      122, 124, 125, -1,
      126, 127, 128, -1,
      128, 127, 129, -1,
      128, 129, 130, -1,
      130, 129, 131, -1,
      132, 133, 115, -1,
      120, 134, 114, -1,
      114, 134, 131, -1,
      114, 131, 115, -1,
      115, 131, 129, -1,
      115, 129, 132, -1,
      135, 136, 90, -1,
      90, 136, 133, -1,
      90, 133, 91, -1,
      91, 133, 132, -1,
      91, 132, 137, -1,
      138, 92, 139, -1,
      139, 92, 91, -1,
      139, 91, 126, -1,
      126, 91, 137, -1,
      126, 137, 127, -1,
      89, 88, 102, -1,
      88, 140, 102, -1,
      102, 140, 141, -1,
      102, 141, 103, -1,
      103, 141, 142, -1,
      103, 142, 100, -1,
      100, 142, 143, -1,
      100, 143, 101, -1,
      87, 83, 144, -1,
      87, 144, 145, -1,
      146, 147, 148, -1,
      86, 85, 144, -1,
      85, 146, 144, -1,
      144, 146, 148, -1,
      144, 148, 145, -1,
      145, 148, 149, -1,
      145, 149, 140, -1,
      140, 149, 150, -1,
      140, 150, 141, -1,
      147, 146, 151, -1,
      151, 146, 152, -1,
      151, 152, 153, -1,
      153, 152, 154, -1,
      154, 152, 84, -1,
      154, 84, 155, -1,
      84, 86, 155, -1,
      155, 86, 156, -1,
      155, 156, 157, -1,
      87, 89, 83, -1,
      83, 89, 2, -1,
      83, 2, 8, -1,
      158, 159, 160, -1,
      161, 162, 163, -1,
      163, 162, 164, -1,
      163, 164, 165, -1,
      164, 166, 165, -1,
      165, 166, 167, -1,
      165, 167, 168, -1,
      168, 167, 169, -1,
      168, 169, 161, -1,
      161, 169, 170, -1,
      161, 170, 162, -1,
      171, 172, 173, -1,
      173, 172, 174, -1,
      173, 174, 175, -1,
      174, 176, 175, -1,
      175, 176, 162, -1,
      175, 162, 177, -1,
      177, 162, 170, -1,
      177, 170, 171, -1,
      171, 170, 178, -1,
      171, 178, 172, -1,
      179, 180, 181, -1,
      181, 180, 182, -1,
      183, 184, 185, -1,
      185, 184, 181, -1,
      186, 187, 188, -1,
      188, 187, 185, -1,
      188, 185, 169, -1,
      169, 185, 181, -1,
      169, 181, 170, -1,
      170, 181, 182, -1,
      170, 182, 178, -1,
      189, 190, 191, -1,
      191, 190, 188, -1,
      192, 193, 194, -1,
      194, 193, 191, -1,
      195, 196, 197, -1,
      197, 196, 198, -1,
      197, 198, 199, -1,
      200, 201, 198, -1,
      198, 201, 202, -1,
      198, 202, 199, -1,
      203, 204, 205, -1,
      205, 204, 206, -1,
      205, 206, 207, -1,
      207, 206, 200, -1,
      207, 200, 208, -1,
      208, 200, 198, -1,
      208, 198, 203, -1,
      203, 198, 209, -1,
      203, 209, 204, -1,
      210, 211, 212, -1,
      212, 211, 213, -1,
      212, 213, 214, -1,
      213, 215, 214, -1,
      214, 215, 204, -1,
      214, 204, 216, -1,
      216, 204, 209, -1,
      216, 209, 210, -1,
      210, 209, 217, -1,
      210, 217, 211, -1,
      218, 219, 220, -1,
      220, 219, 221, -1,
      220, 221, 222, -1,
      221, 223, 222, -1,
      222, 223, 211, -1,
      222, 211, 224, -1,
      224, 211, 217, -1,
      224, 217, 218, -1,
      218, 217, 160, -1,
      218, 160, 219, -1,
      219, 160, 159, -1,
      219, 159, 225, -1,
      196, 226, 198, -1,
      198, 226, 194, -1,
      198, 194, 209, -1,
      209, 194, 191, -1,
      209, 191, 217, -1,
      217, 191, 188, -1,
      217, 188, 160, -1,
      160, 188, 169, -1,
      160, 169, 158, -1,
      158, 169, 167, -1,
      158, 167, 227, -1,
      227, 167, 228, -1,
      227, 228, 225, -1,
      225, 228, 229, -1,
      225, 229, 219, -1,
      230, 231, 232, -1,
      232, 231, 233, -1,
      58, 234, 64, -1,
      64, 234, 235, -1,
      64, 235, 82, -1,
      236, 237, 238, -1,
      238, 237, 239, -1,
      240, 241, 242, -1,
      242, 241, 243, -1,
      244, 245, 246, -1,
      246, 245, 247, -1,
      248, 249, 250, -1,
      250, 249, 251, -1,
      252, 253, 254, -1,
      254, 253, 255, -1,
      256, 257, 258, -1,
      258, 257, 259, -1,
      98, 231, 96, -1,
      96, 231, 230, -1,
      239, 125, 238, -1,
      238, 125, 124, -1,
      243, 113, 242, -1,
      242, 113, 112, -1,
      246, 247, 142, -1,
      142, 247, 143, -1,
      150, 149, 248, -1,
      248, 149, 249, -1,
      254, 255, 120, -1,
      120, 255, 134, -1,
      123, 110, 256, -1,
      256, 110, 257, -1,
      232, 233, 228, -1,
      228, 233, 229, -1,
      166, 164, 234, -1,
      234, 164, 235, -1,
      215, 213, 236, -1,
      236, 213, 237, -1,
      223, 221, 240, -1,
      240, 221, 241, -1,
      187, 186, 244, -1,
      244, 186, 245, -1,
      250, 251, 183, -1,
      183, 251, 184, -1,
      193, 192, 252, -1,
      252, 192, 253, -1,
      258, 259, 189, -1,
      189, 259, 190, -1,
      260, 261, 262, -1,
      262, 261, 263, -1,
      264, 265, 266, -1,
      266, 265, 267, -1,
      268, 269, 270, -1,
      270, 269, 271, -1,
      272, 273, 130, -1,
      130, 273, 128, -1,
      267, 157, 266, -1,
      266, 157, 156, -1,
      182, 153, 178, -1,
      178, 153, 154, -1,
      178, 154, 172, -1,
      274, 273, 275, -1,
      275, 273, 272, -1,
      202, 138, 199, -1,
      199, 138, 139, -1,
      199, 139, 197, -1,
      147, 151, 268, -1,
      268, 151, 269, -1,
      261, 136, 263, -1,
      263, 136, 135, -1,
      136, 261, 206, -1,
      206, 261, 260, -1,
      136, 206, 133, -1,
      133, 206, 204, -1,
      133, 204, 115, -1,
      262, 263, 201, -1,
      201, 263, 135, -1,
      138, 202, 92, -1,
      92, 202, 201, -1,
      92, 201, 90, -1,
      90, 201, 135, -1,
      128, 273, 195, -1,
      195, 273, 274, -1,
      128, 195, 126, -1,
      126, 195, 197, -1,
      126, 197, 139, -1,
      275, 272, 226, -1,
      226, 272, 130, -1,
      226, 130, 194, -1,
      194, 130, 131, -1,
      176, 174, 264, -1,
      264, 174, 265, -1,
      206, 260, 200, -1,
      200, 260, 262, -1,
      200, 262, 201, -1,
      195, 274, 196, -1,
      196, 274, 275, -1,
      196, 275, 226, -1,
      270, 271, 179, -1,
      179, 271, 180, -1,
    ]
  }
}

Shape {
  appearance Appearance {
    material Material {
      diffuseColor 0.7529 0.7529 0.7529
      specularColor 0.3765 0.3765 0.3765
      ambientIntensity 0.2
      transparency 0.0000
      shininess 0.5
    }
  }
  geometry IndexedFaceSet {
    ccw TRUE
    solid FALSE
    coord DEF co Coordinate {
      point [
        -2.625984 -0.492126 0.618110,
        -2.374016 -0.492126 0.618110,
        -2.374016 -0.492126 0.366142,
        -2.625984 -0.492126 0.366142,
        -2.374016 0.295276 0.618110,
        -2.374016 0.295276 0.366142,
        -2.625984 0.295276 0.366142,
        -2.625984 0.295276 0.618110,
        -2.625984 1.161417 0.618110,
        -2.374016 1.161417 0.618110,
        -2.374016 1.191550 0.612117,
        -2.625984 1.191550 0.612117,
        -2.374016 1.217095 0.595048,
        -2.625984 1.217095 0.595048,
        -2.374016 1.234164 0.569503,
        -2.625984 1.234164 0.569503,
        -2.374016 1.240157 0.539370,
        -2.625984 1.240157 0.539370,
        -2.625984 1.240157 -1.102362,
        -2.374016 1.240157 -1.102362,
        -2.625984 1.161417 -1.181102,
        -2.374016 1.161417 -1.181102,
        -2.625984 1.066929 -1.181102,
        -2.374016 1.066929 -1.181102,
        -2.625984 0.988189 -1.102362,
        -2.374016 0.988189 -1.102362,
        -2.625984 0.988189 0.287402,
        -2.374016 0.988189 0.287402,
        -2.625984 0.982195 0.317534,
        -2.374016 0.982195 0.317534,
        -2.625984 0.965126 0.343079,
        -2.374016 0.965126 0.343079,
        -2.625984 0.939581 0.360148,
        -2.374016 0.939581 0.360148,
        -2.625984 0.909449 0.366142,
        -2.374016 0.909449 0.366142,
        -2.374016 -2.775591 0.366142,
        -2.625984 -2.775591 0.366142,
        -2.625984 -2.775591 0.618110,
        -2.374016 -2.775591 0.618110,
        -2.625984 -2.854331 0.539370,
        -2.625984 -2.854331 0.444882,
        -2.374016 -2.854331 0.444882,
        -2.374016 -2.854331 0.539370,
      ]
    }
    coordIndex [
      8, 9, 10, -1,
      8, 10, 11, -1,
      11, 10, 12, -1,
      11, 12, 13, -1,
      13, 12, 14, -1,
      13, 14, 15, -1,
      15, 14, 16, -1,
      15, 16, 17, -1,
      18, 17, 19, -1,
      19, 17, 16, -1,
      20, 18, 21, -1,
      21, 18, 19, -1,
      22, 20, 23, -1,
      23, 20, 21, -1,
      24, 22, 25, -1,
      25, 22, 23, -1,
      26, 24, 27, -1,
      27, 24, 25, -1,
      26, 27, 28, -1,
      28, 27, 29, -1,
      28, 29, 30, -1,
      30, 29, 31, -1,
      30, 31, 32, -1,
      32, 31, 33, -1,
      32, 33, 34, -1,
      34, 33, 35, -1,
      9, 4, 5, -1,
      5, 35, 9, -1,
      9, 35, 33, -1,
      9, 33, 10, -1,
      10, 33, 31, -1,
      23, 21, 25, -1,
      25, 21, 19, -1,
      25, 19, 27, -1,
      27, 19, 16, -1,
      27, 16, 29, -1,
      29, 16, 14, -1,
      29, 14, 31, -1,
      31, 14, 12, -1,
      31, 12, 10, -1,
      6, 7, 34, -1,
      34, 7, 8, -1,
      34, 8, 32, -1,
      32, 8, 11, -1,
      32, 11, 30, -1,
      18, 20, 22, -1,
      11, 13, 30, -1,
      30, 13, 15, -1,
      30, 15, 28, -1,
      28, 15, 17, -1,
      28, 17, 26, -1,
      26, 17, 18, -1,
      26, 18, 24, -1,
      24, 18, 22, -1,
      4, 9, 7, -1,
      7, 9, 8, -1,
      6, 34, 5, -1,
      5, 34, 35, -1,
      2, 36, 3, -1,
      3, 36, 37, -1,
      0, 38, 1, -1,
      1, 38, 39, -1,
      40, 38, 41, -1,
      41, 38, 0, -1,
      41, 0, 37, -1,
      37, 0, 3, -1,
      42, 36, 43, -1,
      43, 36, 2, -1,
      43, 2, 39, -1,
      39, 2, 1, -1,
      41, 37, 42, -1,
      42, 37, 36, -1,
      40, 41, 43, -1,
      43, 41, 42, -1,
      38, 40, 39, -1,
      39, 40, 43, -1,
    ]
  }
}

Shape {
  appearance Appearance {
    material Material {
      diffuseColor 0.1490 0.1490 0.1490
      specularColor 0.0745 0.0745 0.0745
      ambientIntensity 0.2
      transparency 0.0000
      shininess 0.5
    }
  }
  geometry IndexedFaceSet {
    ccw TRUE
    solid FALSE
    coord DEF co Coordinate {
      point [
        1.196850 -0.492126 0.000000,
        1.196850 -0.209469 0.000000,
        1.803150 -0.209469 0.000000,
        1.803150 -0.492126 0.000000,
        1.196850 0.492126 0.000000,
        1.803150 0.492126 0.000000,
        1.955709 -0.492126 0.183071,
        2.044291 -0.492126 0.183071,
        1.044291 -0.492126 0.183071,
        0.044291 -0.492126 0.183071,
        0.803150 -0.492126 -0.000000,
        0.955709 -0.492126 0.183071,
        0.196850 -0.492126 -0.000000,
        0.000000 -0.492126 0.236220,
        0.000000 -0.492126 0.748031,
        1.000000 -0.492126 0.236220,
        -1.000000 -0.492126 0.236220,
        -0.955709 -0.492126 0.183071,
        -0.196850 -0.492126 0.984252,
        -0.044291 -0.492126 0.183071,
        -0.803150 -0.492126 -0.000000,
        -0.196850 -0.492126 -0.000000,
        -2.000000 -0.492126 0.236220,
        -1.955709 -0.492126 0.183071,
        -1.196850 -0.492126 0.984252,
        -1.000000 -0.492126 0.748031,
        -1.044291 -0.492126 0.183071,
        -0.803150 -0.492126 0.984252,
        -1.803150 -0.492126 -0.000000,
        -1.196850 -0.492126 -0.000000,
        -2.000000 -0.492126 0.748031,
        -1.803150 -0.492126 0.984252,
        1.000000 -0.492126 0.748031,
        0.803150 -0.492126 0.984252,
        0.196850 -0.492126 0.984252,
        2.000000 -0.492126 0.236220,
        2.196850 -0.492126 0.984252,
        2.000000 -0.492126 0.748031,
        1.803150 -0.492126 0.984252,
        1.196850 -0.492126 0.984252,
        2.803150 -0.492126 0.984252,
        3.000000 -0.492126 0.748031,
        3.000000 -0.492126 0.236220,
        2.955709 -0.492126 0.183071,
        2.196850 -0.492126 -0.000000,
        2.803150 -0.492126 -0.000000,
        2.000000 0.295276 0.236220,
        1.901575 0.295276 0.118110,
        1.098425 0.295276 0.118110,
        1.000000 0.295276 0.236220,
        3.000000 0.295276 0.236220,
        2.901575 0.295276 0.118110,
        2.098425 0.295276 0.118110,
        2.098425 0.295276 0.866142,
        2.901575 0.295276 0.866142,
        2.000000 0.295276 0.748031,
        3.000000 0.295276 0.748031,
        1.098425 0.295276 0.866142,
        1.901575 0.295276 0.866142,
        1.000000 0.295276 0.748031,
        0.098425 0.295276 0.866142,
        0.901575 0.295276 0.866142,
        0.000000 0.295276 0.748031,
        -0.901575 0.295276 0.866142,
        -0.098425 0.295276 0.866142,
        -1.000000 0.295276 0.748031,
        -1.901575 0.295276 0.866142,
        -1.098425 0.295276 0.866142,
        -2.000000 0.295276 0.748031,
        -2.000000 0.295276 0.236220,
        -1.000000 0.295276 0.236220,
        -1.098425 0.295276 0.118110,
        -1.901575 0.295276 0.118110,
        0.000000 0.295276 0.236220,
        -0.098425 0.295276 0.118110,
        -0.901575 0.295276 0.118110,
        0.901575 0.295276 0.118110,
        0.098425 0.295276 0.118110,
        0.803150 0.492126 -0.000000,
        0.196850 0.492126 -0.000000,
        0.901575 0.492126 0.118110,
        0.098425 0.492126 0.118110,
        1.098425 0.492126 0.118110,
        1.901575 0.492126 0.118110,
        -1.901575 0.492126 0.118110,
        -1.098425 0.492126 0.118110,
        -1.803150 0.492126 -0.000000,
        -1.196850 0.492126 -0.000000,
        -0.901575 0.492126 0.118110,
        -0.098425 0.492126 0.118110,
        -0.803150 0.492126 -0.000000,
        -0.196850 0.492126 -0.000000,
        0.901575 0.492126 0.866142,
        0.098425 0.492126 0.866142,
        0.803150 0.492126 0.984252,
        0.196850 0.492126 0.984252,
        1.196850 0.492126 0.984252,
        1.803150 0.492126 0.984252,
        1.098425 0.492126 0.866142,
        1.901575 0.492126 0.866142,
        -1.098425 0.492126 0.866142,
        -1.901575 0.492126 0.866142,
        -1.196850 0.492126 0.984252,
        -1.803150 0.492126 0.984252,
        -0.803150 0.492126 0.984252,
        -0.196850 0.492126 0.984252,
        -0.901575 0.492126 0.866142,
        -0.098425 0.492126 0.866142,
        2.098425 0.492126 0.118110,
        2.901575 0.492126 0.118110,
        2.196850 0.492126 -0.000000,
        2.803150 0.492126 -0.000000,
        2.196850 0.492126 0.984252,
        2.803150 0.492126 0.984252,
        2.098425 0.492126 0.866142,
        2.901575 0.492126 0.866142,
      ]
    }
    coordIndex [
      103, 101, 66, -1,
      68, 30, 66, -1,
      66, 30, 31, -1,
      66, 31, 103, -1,
      115, 113, 54, -1,
      54, 113, 40, -1,
      54, 40, 56, -1,
      56, 40, 41, -1,
      107, 105, 64, -1,
      64, 105, 18, -1,
      64, 18, 62, -1,
      62, 18, 14, -1,
      95, 93, 60, -1,
      62, 14, 60, -1,
      60, 14, 34, -1,
      60, 34, 95, -1,
      100, 102, 67, -1,
      67, 102, 24, -1,
      67, 24, 65, -1,
      65, 24, 25, -1,
      104, 106, 63, -1,
      65, 25, 63, -1,
      63, 25, 27, -1,
      63, 27, 104, -1,
      99, 97, 58, -1,
      58, 97, 38, -1,
      58, 38, 55, -1,
      55, 38, 37, -1,
      112, 114, 53, -1,
      55, 37, 53, -1,
      53, 37, 36, -1,
      53, 36, 112, -1,
      92, 94, 61, -1,
      61, 94, 33, -1,
      61, 33, 59, -1,
      59, 33, 32, -1,
      96, 98, 57, -1,
      59, 32, 57, -1,
      57, 32, 39, -1,
      57, 39, 96, -1,
      45, 111, 51, -1,
      51, 111, 109, -1,
      45, 51, 43, -1,
      43, 51, 50, -1,
      43, 50, 42, -1,
      21, 91, 74, -1,
      74, 91, 89, -1,
      21, 74, 19, -1,
      19, 74, 73, -1,
      19, 73, 13, -1,
      77, 81, 79, -1,
      13, 73, 9, -1,
      9, 73, 77, -1,
      9, 77, 12, -1,
      12, 77, 79, -1,
      29, 87, 71, -1,
      71, 87, 85, -1,
      29, 71, 26, -1,
      26, 71, 70, -1,
      26, 70, 16, -1,
      75, 88, 90, -1,
      16, 70, 17, -1,
      17, 70, 75, -1,
      17, 75, 20, -1,
      20, 75, 90, -1,
      72, 84, 86, -1,
      22, 69, 23, -1,
      23, 69, 72, -1,
      23, 72, 28, -1,
      28, 72, 86, -1,
      6, 3, 2, -1,
      35, 6, 46, -1,
      46, 6, 2, -1,
      46, 2, 47, -1,
      47, 2, 5, -1,
      47, 5, 83, -1,
      52, 108, 110, -1,
      35, 46, 7, -1,
      7, 46, 52, -1,
      7, 52, 44, -1,
      44, 52, 110, -1,
      10, 78, 76, -1,
      76, 78, 80, -1,
      10, 76, 11, -1,
      11, 76, 49, -1,
      11, 49, 15, -1,
      48, 82, 4, -1,
      1, 0, 8, -1,
      4, 1, 48, -1,
      48, 1, 8, -1,
      48, 8, 49, -1,
      49, 8, 15, -1,
    ]
  }
}

Shape {
  appearance Appearance {
    material Material {
      diffuseColor 0.7529 0.7529 0.7529
      specularColor 0.3765 0.3765 0.3765
      ambientIntensity 0.2
      transparency 0.0000
      shininess 0.5
    }
  }
  geometry IndexedFaceSet {
    ccw TRUE
    solid FALSE
    coord DEF co Coordinate {
      point [
        1.500000 0.207229 0.000000,
        1.657480 0.147890 0.000000,
        1.500000 0.222593 0.000000,
        1.657480 0.149909 0.000000,
        2.625984 -0.492126 0.366142,
        2.374016 -0.492126 0.366142,
        1.625984 -0.492126 0.366142,
        1.374016 -0.492126 0.366142,
        0.625984 -0.492126 0.366142,
        0.374016 -0.492126 0.366142,
        0.374016 -0.492126 0.618110,
        0.625984 -0.492126 0.618110,
        -0.625984 -0.492126 0.618110,
        -0.625984 -0.492126 0.366142,
        -0.374016 -0.492126 0.366142,
        -0.374016 -0.492126 0.618110,
        -1.625984 -0.492126 0.618110,
        -1.625984 -0.492126 0.366142,
        -1.374016 -0.492126 0.366142,
        -1.374016 -0.492126 0.618110,
        1.374016 -0.492126 0.618110,
        1.625984 -0.492126 0.618110,
        2.374016 -0.492126 0.618110,
        2.625984 -0.492126 0.618110,
        0.625984 0.295276 0.618110,
        0.374016 0.295276 0.618110,
        1.625984 0.295276 0.618110,
        1.625984 0.295276 0.366142,
        1.374016 0.295276 0.366142,
        1.374016 0.295276 0.618110,
        2.625984 0.295276 0.618110,
        2.625984 0.295276 0.366142,
        2.374016 0.295276 0.366142,
        2.374016 0.295276 0.618110,
        -1.374016 0.295276 0.618110,
        -1.374016 0.295276 0.366142,
        -1.625984 0.295276 0.366142,
        -1.625984 0.295276 0.618110,
        -0.374016 0.295276 0.618110,
        -0.374016 0.295276 0.366142,
        -0.625984 0.295276 0.366142,
        -0.625984 0.295276 0.618110,
        0.374016 0.295276 0.366142,
        0.625984 0.295276 0.366142,
        -1.625984 1.161417 0.618110,
        -1.374016 1.161417 0.618110,
        -1.374016 1.191550 0.612117,
        -1.625984 1.191550 0.612117,
        -1.374016 1.217095 0.595048,
        -1.625984 1.217095 0.595048,
        -1.374016 1.234164 0.569503,
        -1.625984 1.234164 0.569503,
        -1.374016 1.240157 0.539370,
        -1.625984 1.240157 0.539370,
        -1.625984 1.240157 -1.102362,
        -1.374016 1.240157 -1.102362,
        -1.625984 1.161417 -1.181102,
        -1.374016 1.161417 -1.181102,
        -1.625984 1.066929 -1.181102,
        -1.374016 1.066929 -1.181102,
        -1.625984 0.988189 -1.102362,
        -1.374016 0.988189 -1.102362,
        -1.625984 0.988189 0.287402,
        -1.374016 0.988189 0.287402,
        -1.625984 0.982195 0.317534,
        -1.374016 0.982195 0.317534,
        -1.625984 0.965126 0.343079,
        -1.374016 0.965126 0.343079,
        -1.625984 0.939581 0.360148,
        -1.374016 0.939581 0.360148,
        -1.625984 0.909449 0.366142,
        -1.374016 0.909449 0.366142,
        -1.374016 -2.775591 0.366142,
        -1.625984 -2.775591 0.366142,
        -1.625984 -2.775591 0.618110,
        -1.374016 -2.775591 0.618110,
        -1.625984 -2.854331 0.539370,
        -1.625984 -2.854331 0.444882,
        -1.374016 -2.854331 0.444882,
        -1.374016 -2.854331 0.539370,
        -0.625984 1.161417 0.618110,
        -0.374016 1.161417 0.618110,
        -0.374016 1.191550 0.612117,
        -0.625984 1.191550 0.612117,
        -0.374016 1.217095 0.595048,
        -0.625984 1.217095 0.595048,
        -0.374016 1.234164 0.569503,
        -0.625984 1.234164 0.569503,
        -0.374016 1.240157 0.539370,
        -0.625984 1.240157 0.539370,
        -0.625984 1.240157 -1.102362,
        -0.374016 1.240157 -1.102362,
        -0.625984 1.161417 -1.181102,
        -0.374016 1.161417 -1.181102,
        -0.625984 1.066929 -1.181102,
        -0.374016 1.066929 -1.181102,
        -0.625984 0.988189 -1.102362,
        -0.374016 0.988189 -1.102362,
        -0.625984 0.988189 0.287402,
        -0.374016 0.988189 0.287402,
        -0.625984 0.982195 0.317534,
        -0.374016 0.982195 0.317534,
        -0.625984 0.965126 0.343079,
        -0.374016 0.965126 0.343079,
        -0.625984 0.939581 0.360148,
        -0.374016 0.939581 0.360148,
        -0.625984 0.909449 0.366142,
        -0.374016 0.909449 0.366142,
        -0.374016 -2.775591 0.366142,
        -0.625984 -2.775591 0.366142,
        -0.625984 -2.775591 0.618110,
        -0.374016 -2.775591 0.618110,
        -0.625984 -2.854331 0.539370,
        -0.625984 -2.854331 0.444882,
        -0.374016 -2.854331 0.444882,
        -0.374016 -2.854331 0.539370,
        0.374016 1.161417 0.618110,
        0.625984 1.161417 0.618110,
        0.625984 1.191550 0.612117,
        0.374016 1.191550 0.612117,
        0.625984 1.217095 0.595048,
        0.374016 1.217095 0.595048,
        0.625984 1.234164 0.569503,
        0.374016 1.234164 0.569503,
        0.625984 1.240157 0.539370,
        0.374016 1.240157 0.539370,
        0.374016 1.240157 -1.102362,
        0.625984 1.240157 -1.102362,
        0.374016 1.161417 -1.181102,
        0.625984 1.161417 -1.181102,
        0.374016 1.066929 -1.181102,
        0.625984 1.066929 -1.181102,
        0.374016 0.988189 -1.102362,
        0.625984 0.988189 -1.102362,
        0.374016 0.988189 0.287402,
        0.625984 0.988189 0.287402,
        0.374016 0.982195 0.317534,
        0.625984 0.982195 0.317534,
        0.374016 0.965126 0.343079,
        0.625984 0.965126 0.343079,
        0.374016 0.939581 0.360148,
        0.625984 0.939581 0.360148,
        0.374016 0.909449 0.366142,
        0.625984 0.909449 0.366142,
        0.625984 -2.775591 0.366142,
        0.374016 -2.775591 0.366142,
        0.374016 -2.775591 0.618110,
        0.625984 -2.775591 0.618110,
        0.374016 -2.854331 0.539370,
        0.374016 -2.854331 0.444882,
        0.625984 -2.854331 0.444882,
        0.625984 -2.854331 0.539370,
        1.374016 1.161417 0.618110,
        1.625984 1.161417 0.618110,
        1.625984 1.191550 0.612117,
        1.374016 1.191550 0.612117,
        1.625984 1.217095 0.595048,
        1.374016 1.217095 0.595048,
        1.625984 1.234164 0.569503,
        1.374016 1.234164 0.569503,
        1.625984 1.240157 0.539370,
        1.374016 1.240157 0.539370,
        1.374016 1.240157 -1.102362,
        1.625984 1.240157 -1.102362,
        1.374016 1.161417 -1.181102,
        1.625984 1.161417 -1.181102,
        1.374016 1.066929 -1.181102,
        1.625984 1.066929 -1.181102,
        1.374016 0.988189 -1.102362,
        1.625984 0.988189 -1.102362,
        1.374016 0.988189 0.287402,
        1.625984 0.988189 0.287402,
        1.374016 0.982195 0.317534,
        1.625984 0.982195 0.317534,
        1.374016 0.965126 0.343079,
        1.625984 0.965126 0.343079,
        1.374016 0.939581 0.360148,
        1.625984 0.939581 0.360148,
        1.374016 0.909449 0.366142,
        1.625984 0.909449 0.366142,
        1.625984 -2.775591 0.366142,
        1.374016 -2.775591 0.366142,
        1.374016 -2.775591 0.618110,
        1.625984 -2.775591 0.618110,
        1.374016 -2.854331 0.539370,
        1.374016 -2.854331 0.444882,
        1.625984 -2.854331 0.444882,
        1.625984 -2.854331 0.539370,
        2.374016 1.161417 0.618110,
        2.625984 1.161417 0.618110,
        2.625984 1.191550 0.612117,
        2.374016 1.191550 0.612117,
        2.625984 1.217095 0.595048,
        2.374016 1.217095 0.595048,
        2.625984 1.234164 0.569503,
        2.374016 1.234164 0.569503,
        2.625984 1.240157 0.539370,
        2.374016 1.240157 0.539370,
        2.374016 1.240157 -1.102362,
        2.625984 1.240157 -1.102362,
        2.374016 1.161417 -1.181102,
        2.625984 1.161417 -1.181102,
        2.374016 1.066929 -1.181102,
        2.625984 1.066929 -1.181102,
        2.374016 0.988189 -1.102362,
        2.625984 0.988189 -1.102362,
        2.374016 0.988189 0.287402,
        2.625984 0.988189 0.287402,
        2.374016 0.982195 0.317534,
        2.625984 0.982195 0.317534,
        2.374016 0.965126 0.343079,
        2.625984 0.965126 0.343079,
        2.374016 0.939581 0.360148,
        2.625984 0.939581 0.360148,
        2.374016 0.909449 0.366142,
        2.625984 0.909449 0.366142,
        2.625984 -2.775591 0.366142,
        2.374016 -2.775591 0.366142,
        2.374016 -2.775591 0.618110,
        2.625984 -2.775591 0.618110,
        2.374016 -2.854331 0.539370,
        2.374016 -2.854331 0.444882,
        2.625984 -2.854331 0.444882,
        2.625984 -2.854331 0.539370,
        1.657480 0.147890 0.039370,
        1.657480 0.149909 0.039370,
        1.500000 0.222593 0.039370,
        1.500000 0.207229 0.039370,
      ]
    }
    coordIndex [
      44, 45, 46, -1,
      44, 46, 47, -1,
      47, 46, 48, -1,
      47, 48, 49, -1,
      49, 48, 50, -1,
      49, 50, 51, -1,
      51, 50, 52, -1,
      51, 52, 53, -1,
      54, 53, 55, -1,
      55, 53, 52, -1,
      56, 54, 57, -1,
      57, 54, 55, -1,
      58, 56, 59, -1,
      59, 56, 57, -1,
      60, 58, 61, -1,
      61, 58, 59, -1,
      62, 60, 63, -1,
      63, 60, 61, -1,
      62, 63, 64, -1,
      64, 63, 65, -1,
      64, 65, 66, -1,
      66, 65, 67, -1,
      66, 67, 68, -1,
      68, 67, 69, -1,
      68, 69, 70, -1,
      70, 69, 71, -1,
      45, 34, 35, -1,
      35, 71, 45, -1,
      45, 71, 69, -1,
      45, 69, 46, -1,
      46, 69, 67, -1,
      59, 57, 61, -1,
      61, 57, 55, -1,
      61, 55, 63, -1,
      63, 55, 52, -1,
      63, 52, 65, -1,
      65, 52, 50, -1,
      65, 50, 67, -1,
      67, 50, 48, -1,
      67, 48, 46, -1,
      36, 37, 70, -1,
      70, 37, 44, -1,
      70, 44, 68, -1,
      68, 44, 47, -1,
      68, 47, 66, -1,
      54, 56, 58, -1,
      47, 49, 66, -1,
      66, 49, 51, -1,
      66, 51, 64, -1,
      64, 51, 53, -1,
      64, 53, 62, -1,
      62, 53, 54, -1,
      62, 54, 60, -1,
      60, 54, 58, -1,
      34, 45, 37, -1,
      37, 45, 44, -1,
      36, 70, 35, -1,
      35, 70, 71, -1,
      18, 72, 17, -1,
      17, 72, 73, -1,
      16, 74, 19, -1,
      19, 74, 75, -1,
      76, 74, 77, -1,
      77, 74, 16, -1,
      77, 16, 73, -1,
      73, 16, 17, -1,
      78, 72, 79, -1,
      79, 72, 18, -1,
      79, 18, 75, -1,
      75, 18, 19, -1,
      77, 73, 78, -1,
      78, 73, 72, -1,
      76, 77, 79, -1,
      79, 77, 78, -1,
      74, 76, 75, -1,
      75, 76, 79, -1,
      80, 81, 82, -1,
      80, 82, 83, -1,
      83, 82, 84, -1,
      83, 84, 85, -1,
      85, 84, 86, -1,
      85, 86, 87, -1,
      87, 86, 88, -1,
      87, 88, 89, -1,
      90, 89, 91, -1,
      91, 89, 88, -1,
      92, 90, 93, -1,
      93, 90, 91, -1,
      94, 92, 95, -1,
      95, 92, 93, -1,
      96, 94, 97, -1,
      97, 94, 95, -1,
      98, 96, 99, -1,
      99, 96, 97, -1,
      98, 99, 100, -1,
      100, 99, 101, -1,
      100, 101, 102, -1,
      102, 101, 103, -1,
      102, 103, 104, -1,
      104, 103, 105, -1,
      104, 105, 106, -1,
      106, 105, 107, -1,
      81, 38, 39, -1,
      39, 107, 81, -1,
      81, 107, 105, -1,
      81, 105, 82, -1,
      82, 105, 103, -1,
      95, 93, 97, -1,
      97, 93, 91, -1,
      97, 91, 99, -1,
      99, 91, 88, -1,
      99, 88, 101, -1,
      101, 88, 86, -1,
      101, 86, 103, -1,
      103, 86, 84, -1,
      103, 84, 82, -1,
      40, 41, 106, -1,
      106, 41, 80, -1,
      106, 80, 104, -1,
      104, 80, 83, -1,
      104, 83, 102, -1,
      90, 92, 94, -1,
      83, 85, 102, -1,
      102, 85, 87, -1,
      102, 87, 100, -1,
      100, 87, 89, -1,
      100, 89, 98, -1,
      98, 89, 90, -1,
      98, 90, 96, -1,
      96, 90, 94, -1,
      38, 81, 41, -1,
      41, 81, 80, -1,
      40, 106, 39, -1,
      39, 106, 107, -1,
      14, 108, 13, -1,
      13, 108, 109, -1,
      12, 110, 15, -1,
      15, 110, 111, -1,
      112, 110, 113, -1,
      113, 110, 12, -1,
      113, 12, 109, -1,
      109, 12, 13, -1,
      114, 108, 115, -1,
      115, 108, 14, -1,
      115, 14, 111, -1,
      111, 14, 15, -1,
      113, 109, 114, -1,
      114, 109, 108, -1,
      112, 113, 115, -1,
      115, 113, 114, -1,
      110, 112, 111, -1,
      111, 112, 115, -1,
      116, 117, 118, -1,
      116, 118, 119, -1,
      119, 118, 120, -1,
      119, 120, 121, -1,
      121, 120, 122, -1,
      121, 122, 123, -1,
      123, 122, 124, -1,
      123, 124, 125, -1,
      126, 125, 127, -1,
      127, 125, 124, -1,
      128, 126, 129, -1,
      129, 126, 127, -1,
      130, 128, 131, -1,
      131, 128, 129, -1,
      132, 130, 133, -1,
      133, 130, 131, -1,
      134, 132, 135, -1,
      135, 132, 133, -1,
      134, 135, 136, -1,
      136, 135, 137, -1,
      136, 137, 138, -1,
      138, 137, 139, -1,
      138, 139, 140, -1,
      140, 139, 141, -1,
      140, 141, 142, -1,
      142, 141, 143, -1,
      117, 24, 43, -1,
      43, 143, 117, -1,
      117, 143, 141, -1,
      117, 141, 118, -1,
      118, 141, 139, -1,
      131, 129, 133, -1,
      133, 129, 127, -1,
      133, 127, 135, -1,
      135, 127, 124, -1,
      135, 124, 137, -1,
      137, 124, 122, -1,
      137, 122, 139, -1,
      139, 122, 120, -1,
      139, 120, 118, -1,
      42, 25, 142, -1,
      142, 25, 116, -1,
      142, 116, 140, -1,
      140, 116, 119, -1,
      140, 119, 138, -1,
      126, 128, 130, -1,
      119, 121, 138, -1,
      138, 121, 123, -1,
      138, 123, 136, -1,
      136, 123, 125, -1,
      136, 125, 134, -1,
      134, 125, 126, -1,
      134, 126, 132, -1,
      132, 126, 130, -1,
      24, 117, 25, -1,
      25, 117, 116, -1,
      42, 142, 43, -1,
      43, 142, 143, -1,
      8, 144, 9, -1,
      9, 144, 145, -1,
      10, 146, 11, -1,
      11, 146, 147, -1,
      148, 146, 149, -1,
      149, 146, 10, -1,
      149, 10, 145, -1,
      145, 10, 9, -1,
      150, 144, 151, -1,
      151, 144, 8, -1,
      151, 8, 147, -1,
      147, 8, 11, -1,
      149, 145, 150, -1,
      150, 145, 144, -1,
      148, 149, 151, -1,
      151, 149, 150, -1,
      146, 148, 147, -1,
      147, 148, 151, -1,
      152, 153, 154, -1,
      152, 154, 155, -1,
      155, 154, 156, -1,
      155, 156, 157, -1,
      157, 156, 158, -1,
      157, 158, 159, -1,
      159, 158, 160, -1,
      159, 160, 161, -1,
      162, 161, 163, -1,
      163, 161, 160, -1,
      164, 162, 165, -1,
      165, 162, 163, -1,
      166, 164, 167, -1,
      167, 164, 165, -1,
      168, 166, 169, -1,
      169, 166, 167, -1,
      170, 168, 171, -1,
      171, 168, 169, -1,
      170, 171, 172, -1,
      172, 171, 173, -1,
      172, 173, 174, -1,
      174, 173, 175, -1,
      174, 175, 176, -1,
      176, 175, 177, -1,
      176, 177, 178, -1,
      178, 177, 179, -1,
      153, 26, 27, -1,
      27, 179, 153, -1,
      153, 179, 177, -1,
      153, 177, 154, -1,
      154, 177, 175, -1,
      167, 165, 169, -1,
      169, 165, 163, -1,
      169, 163, 171, -1,
      171, 163, 160, -1,
      171, 160, 173, -1,
      173, 160, 158, -1,
      173, 158, 175, -1,
      175, 158, 156, -1,
      175, 156, 154, -1,
      28, 29, 178, -1,
      178, 29, 152, -1,
      178, 152, 176, -1,
      176, 152, 155, -1,
      176, 155, 174, -1,
      162, 164, 166, -1,
      155, 157, 174, -1,
      174, 157, 159, -1,
      174, 159, 172, -1,
      172, 159, 161, -1,
      172, 161, 170, -1,
      170, 161, 162, -1,
      170, 162, 168, -1,
      168, 162, 166, -1,
      26, 153, 29, -1,
      29, 153, 152, -1,
      28, 178, 27, -1,
      27, 178, 179, -1,
      6, 180, 7, -1,
      7, 180, 181, -1,
      20, 182, 21, -1,
      21, 182, 183, -1,
      184, 182, 185, -1,
      185, 182, 20, -1,
      185, 20, 181, -1,
      181, 20, 7, -1,
      186, 180, 187, -1,
      187, 180, 6, -1,
      187, 6, 183, -1,
      183, 6, 21, -1,
      185, 181, 186, -1,
      186, 181, 180, -1,
      184, 185, 187, -1,
      187, 185, 186, -1,
      182, 184, 183, -1,
      183, 184, 187, -1,
      188, 189, 190, -1,
      188, 190, 191, -1,
      191, 190, 192, -1,
      191, 192, 193, -1,
      193, 192, 194, -1,
      193, 194, 195, -1,
      195, 194, 196, -1,
      195, 196, 197, -1,
      198, 197, 199, -1,
      199, 197, 196, -1,
      200, 198, 201, -1,
      201, 198, 199, -1,
      202, 200, 203, -1,
      203, 200, 201, -1,
      204, 202, 205, -1,
      205, 202, 203, -1,
      206, 204, 207, -1,
      207, 204, 205, -1,
      206, 207, 208, -1,
      208, 207, 209, -1,
      208, 209, 210, -1,
      210, 209, 211, -1,
      210, 211, 212, -1,
      212, 211, 213, -1,
      212, 213, 214, -1,
      214, 213, 215, -1,
      189, 30, 31, -1,
      31, 215, 189, -1,
      189, 215, 213, -1,
      189, 213, 190, -1,
      190, 213, 211, -1,
      203, 201, 205, -1,
      205, 201, 199, -1,
      205, 199, 207, -1,
      207, 199, 196, -1,
      207, 196, 209, -1,
      209, 196, 194, -1,
      209, 194, 211, -1,
      211, 194, 192, -1,
      211, 192, 190, -1,
      32, 33, 214, -1,
      214, 33, 188, -1,
      214, 188, 212, -1,
      212, 188, 191, -1,
      212, 191, 210, -1,
      198, 200, 202, -1,
      191, 193, 210, -1,
      210, 193, 195, -1,
      210, 195, 208, -1,
      208, 195, 197, -1,
      208, 197, 206, -1,
      206, 197, 198, -1,
      206, 198, 204, -1,
      204, 198, 202, -1,
      30, 189, 33, -1,
      33, 189, 188, -1,
      32, 214, 31, -1,
      31, 214, 215, -1,
      4, 216, 5, -1,
      5, 216, 217, -1,
      22, 218, 23, -1,
      23, 218, 219, -1,
      220, 218, 221, -1,
      221, 218, 22, -1,
      221, 22, 217, -1,
      217, 22, 5, -1,
      222, 216, 223, -1,
      223, 216, 4, -1,
      223, 4, 219, -1,
      219, 4, 23, -1,
      221, 217, 222, -1,
      222, 217, 216, -1,
      220, 221, 223, -1,
      223, 221, 222, -1,
      218, 220, 219, -1,
      219, 220, 223, -1,
      224, 225, 1, -1,
      1, 225, 3, -1,
      225, 226, 3, -1,
      3, 226, 2, -1,
      226, 227, 2, -1,
      2, 227, 0, -1,
    ]
  }
}

Shape {
  appearance Appearance {
    material Material {
      diffuseColor 0.1490 0.1490 0.1490
      specularColor 0.0745 0.0745 0.0745
      ambientIntensity 0.2
      transparency 0.0000
      shininess 0.5
    }
  }
  geometry IndexedFaceSet {
    ccw TRUE
    solid FALSE
    coord DEF co Coordinate {
      point [
        1.500000 0.207229 0.000000,
        1.550474 0.183948 0.000000,
        1.500000 0.207229 0.039370,
        1.550474 0.183948 0.039370,
      ]
    }
    coordIndex [
      2, 3, 0, -1,
      0, 3, 1, -1,
    ]
  }
}

Shape {
  appearance Appearance {
    material Material {
      diffuseColor 0.7529 0.7529 0.7529
      specularColor 0.3765 0.3765 0.3765
      ambientIntensity 0.2
      transparency 0.0000
      shininess 0.5
    }
  }
  geometry IndexedFaceSet {
    ccw TRUE
    solid FALSE
    coord DEF co Coordinate {
      point [
        1.550474 0.183948 0.000000,
        1.550474 0.112558 0.000000,
        1.500000 0.073188 0.000000,
        1.500000 0.088614 0.000000,
        1.550474 0.183948 0.039370,
        1.550474 0.112558 0.039370,
        1.500000 0.088614 0.039370,
        1.500000 0.073188 0.039370,
      ]
    }
    coordIndex [
      4, 5, 0, -1,
      0, 5, 1, -1,
      5, 6, 1, -1,
      1, 6, 3, -1,
      6, 7, 3, -1,
      3, 7, 2, -1,
    ]
  }
}

Shape {
  appearance Appearance {
    material Material {
      diffuseColor 0.1490 0.1490 0.1490
      specularColor 0.0745 0.0745 0.0745
      ambientIntensity 0.2
      transparency 0.0000
      shininess 0.5
    }
  }
  geometry IndexedFaceSet {
    ccw TRUE
    solid FALSE
    coord DEF co Coordinate {
      point [
        1.500000 0.073188 0.000000,
        1.657480 0.147890 0.000000,
        1.657480 0.147890 0.039370,
        1.657480 0.149909 0.039370,
        1.500000 0.222593 0.039370,
        1.500000 0.207229 0.039370,
        1.550474 0.183948 0.039370,
        1.550474 0.112558 0.039370,
        1.500000 0.088614 0.039370,
        1.500000 0.073188 0.039370,
        1.566626 0.120224 0.039370,
        1.626785 0.148742 0.039370,
        1.566626 0.176503 0.039370,
        1.566626 0.176503 0.000000,
        1.626785 0.148742 0.000000,
      ]
    }
    coordIndex [
      9, 2, 0, -1,
      0, 2, 1, -1,
      3, 2, 10, -1,
      10, 11, 3, -1,
      3, 11, 12, -1,
      3, 12, 4, -1,
      9, 8, 7, -1,
      5, 4, 6, -1,
      6, 4, 12, -1,
      6, 12, 7, -1,
      7, 12, 10, -1,
      7, 10, 9, -1,
      9, 10, 2, -1,
      12, 11, 13, -1,
      13, 11, 14, -1,
    ]
  }
}

Shape {
  appearance Appearance {
    material Material {
      diffuseColor 0.7529 0.7529 0.7529
      specularColor 0.3765 0.3765 0.3765
      ambientIntensity 0.2
      transparency 0.0000
      shininess 0.5
    }
  }
  geometry IndexedFaceSet {
    ccw TRUE
    solid FALSE
    coord DEF co Coordinate {
      point [
        1.500000 -0.076217 0.000000,
        1.500000 -0.027414 0.000000,
        1.566626 0.120224 0.039370,
        1.626785 0.148742 0.039370,
        1.566626 0.176503 0.039370,
        1.566626 0.176503 0.000000,
        1.626785 0.148742 0.000000,
        1.566626 0.120224 0.000000,
        1.500000 -0.027414 0.039370,
        1.500000 -0.076217 0.039370,
      ]
    }
    coordIndex [
      2, 4, 7, -1,
      7, 4, 5, -1,
      3, 2, 6, -1,
      6, 2, 7, -1,
      8, 9, 1, -1,
      1, 9, 0, -1,
    ]
  }
}

Shape {
  appearance Appearance {
    material Material {
      diffuseColor 0.1490 0.1490 0.1490
      specularColor 0.0745 0.0745 0.0745
      ambientIntensity 0.2
      transparency 0.0000
      shininess 0.5
    }
  }
  geometry IndexedFaceSet {
    ccw TRUE
    solid FALSE
    coord DEF co Coordinate {
      point [
        1.500000 -0.076217 0.000000,
        1.657480 -0.076217 0.000000,
        1.500000 -0.076217 0.039370,
        1.657480 -0.076217 0.039370,
      ]
    }
    coordIndex [
      2, 3, 0, -1,
      0, 3, 1, -1,
    ]
  }
}

Shape {
  appearance Appearance {
    material Material {
      diffuseColor 0.7529 0.7529 0.7529
      specularColor 0.3765 0.3765 0.3765
      ambientIntensity 0.2
      transparency 0.0000
      shininess 0.5
    }
  }
  geometry IndexedFaceSet {
    ccw TRUE
    solid FALSE
    coord DEF co Coordinate {
      point [
        1.537067 0.044077 0.000000,
        1.512920 0.024067 0.000000,
        1.651802 0.005552 0.000000,
        1.632711 0.033929 0.000000,
        1.601476 0.050054 0.000000,
        1.576753 0.052998 0.000000,
        1.501265 -0.007211 0.000000,
        1.500000 -0.027414 0.000000,
        1.657480 -0.076217 0.000000,
        1.657480 -0.044418 0.000000,
        1.656517 -0.019191 0.000000,
        1.500000 -0.027414 0.039370,
        1.657480 -0.076217 0.039370,
        1.657480 -0.044418 0.039370,
        1.651802 0.005552 0.039370,
        1.656517 -0.019191 0.039370,
        1.576753 0.052998 0.039370,
        1.601476 0.050054 0.039370,
        1.632711 0.033929 0.039370,
        1.501265 -0.007211 0.039370,
        1.512920 0.024067 0.039370,
        1.537067 0.044077 0.039370,
      ]
    }
    coordIndex [
      12, 13, 8, -1,
      8, 13, 9, -1,
      14, 2, 10, -1,
      14, 10, 15, -1,
      15, 10, 9, -1,
      15, 9, 13, -1,
      16, 5, 4, -1,
      16, 4, 17, -1,
      17, 4, 3, -1,
      17, 3, 18, -1,
      18, 3, 2, -1,
      18, 2, 14, -1,
      11, 7, 6, -1,
      11, 6, 19, -1,
      19, 6, 1, -1,
      19, 1, 20, -1,
      20, 1, 0, -1,
      20, 0, 21, -1,
      21, 0, 5, -1,
      21, 5, 16, -1,
    ]
  }
}

Shape {
  appearance Appearance {
    material Material {
      diffuseColor 0.1490 0.1490 0.1490
      specularColor 0.0745 0.0745 0.0745
      ambientIntensity 0.2
      transparency 0.0000
      shininess 0.5
    }
  }
  geometry IndexedFaceSet {
    ccw TRUE
    solid FALSE
    coord DEF co Coordinate {
      point [
        1.500000 -0.027414 0.039370,
        1.500000 -0.076217 0.039370,
        1.657480 -0.076217 0.039370,
        1.657480 -0.044418 0.039370,
        1.651802 0.005552 0.039370,
        1.656517 -0.019191 0.039370,
        1.576753 0.052998 0.039370,
        1.601476 0.050054 0.039370,
        1.632711 0.033929 0.039370,
        1.501265 -0.007211 0.039370,
        1.512920 0.024067 0.039370,
        1.537067 0.044077 0.039370,
        1.520158 0.001009 0.039370,
        1.516789 -0.021355 0.039370,
        1.516152 -0.044007 0.039370,
        1.516152 -0.062083 0.039370,
        1.641328 -0.062083 0.039370,
        1.641328 -0.051011 0.039370,
        1.640587 -0.026661 0.039370,
        1.636912 -0.002619 0.039370,
        1.628518 0.014799 0.039370,
        1.608233 0.031970 0.039370,
        1.576784 0.038865 0.039370,
        1.557058 0.036339 0.039370,
        1.534221 0.023602 0.039370,
      ]
    }
    coordIndex [
      12, 13, 0, -1,
      0, 13, 14, -1,
      0, 14, 1, -1,
      1, 14, 15, -1,
      1, 15, 2, -1,
      2, 15, 16, -1,
      2, 16, 3, -1,
      3, 16, 17, -1,
      3, 17, 5, -1,
      5, 17, 18, -1,
      5, 18, 4, -1,
      4, 18, 19, -1,
      4, 19, 8, -1,
      8, 19, 20, -1,
      8, 20, 7, -1,
      7, 20, 21, -1,
      7, 21, 6, -1,
      6, 21, 22, -1,
      6, 22, 11, -1,
      11, 22, 23, -1,
      11, 23, 10, -1,
      10, 23, 24, -1,
      10, 24, 9, -1,
      9, 24, 12, -1,
      9, 12, 0, -1,
    ]
  }
}

Shape {
  appearance Appearance {
    material Material {
      diffuseColor 0.7529 0.7529 0.7529
      specularColor 0.3765 0.3765 0.3765
      ambientIntensity 0.2
      transparency 0.0000
      shininess 0.5
    }
  }
  geometry IndexedFaceSet {
    ccw TRUE
    solid FALSE
    coord DEF co Coordinate {
      point [
        1.516152 -0.062083 0.039370,
        1.641328 -0.062083 0.039370,
        1.641328 -0.051011 0.039370,
        1.641328 -0.062083 0.000000,
        1.516152 -0.062083 0.000000,
        1.641328 -0.051011 0.000000,
      ]
    }
    coordIndex [
      1, 0, 3, -1,
      3, 0, 4, -1,
      2, 1, 5, -1,
      5, 1, 3, -1,
    ]
  }
}

Shape {
  appearance Appearance {
    material Material {
      diffuseColor 0.1490 0.1490 0.1490
      specularColor 0.0745 0.0745 0.0745
      ambientIntensity 0.2
      transparency 0.0000
      shininess 0.5
    }
  }
  geometry IndexedFaceSet {
    ccw TRUE
    solid FALSE
    coord DEF co Coordinate {
      point [
        1.520158 0.001009 0.039370,
        1.516789 -0.021355 0.039370,
        1.516152 -0.044007 0.039370,
        1.641328 -0.051011 0.039370,
        1.640587 -0.026661 0.039370,
        1.636912 -0.002619 0.039370,
        1.628518 0.014799 0.039370,
        1.608233 0.031970 0.039370,
        1.576784 0.038865 0.039370,
        1.557058 0.036339 0.039370,
        1.534221 0.023602 0.039370,
        1.641328 -0.051011 0.000000,
        1.640587 -0.026661 -0.000000,
        1.636912 -0.002619 0.000000,
        1.628518 0.014799 0.000000,
        1.608233 0.031970 0.000000,
        1.576784 0.038865 -0.000000,
        1.557058 0.036339 0.000000,
        1.534221 0.023602 0.000000,
        1.520158 0.001009 0.000000,
        1.516789 -0.021355 0.000000,
        1.516152 -0.044007 0.000000,
      ]
    }
    coordIndex [
      3, 11, 12, -1,
      3, 12, 4, -1,
      4, 12, 13, -1,
      4, 13, 5, -1,
      5, 13, 14, -1,
      5, 14, 6, -1,
      6, 14, 15, -1,
      6, 15, 7, -1,
      7, 15, 16, -1,
      7, 16, 8, -1,
      8, 16, 17, -1,
      8, 17, 9, -1,
      9, 17, 18, -1,
      9, 18, 10, -1,
      10, 18, 19, -1,
      10, 19, 0, -1,
      0, 19, 20, -1,
      0, 20, 1, -1,
      1, 20, 21, -1,
      1, 21, 2, -1,
    ]
  }
}

Shape {
  appearance Appearance {
    material Material {
      diffuseColor 0.7529 0.7529 0.7529
      specularColor 0.3765 0.3765 0.3765
      ambientIntensity 0.2
      transparency 0.0000
      shininess 0.5
    }
  }
  geometry IndexedFaceSet {
    ccw TRUE
    solid FALSE
    coord DEF co Coordinate {
      point [
        1.516152 -0.044007 0.039370,
        1.516152 -0.062083 0.039370,
        1.516152 -0.062083 0.000000,
        1.516152 -0.044007 0.000000,
      ]
    }
    coordIndex [
      1, 0, 2, -1,
      2, 0, 3, -1,
    ]
  }
}

Shape {
  appearance Appearance {
    material Material {
      diffuseColor 0.1490 0.1490 0.1490
      specularColor 0.0745 0.0745 0.0745
      ambientIntensity 0.2
      transparency 0.0000
      shininess 0.5
    }
  }
  geometry IndexedFaceSet {
    ccw TRUE
    solid FALSE
    coord DEF co Coordinate {
      point [
        1.500000 -0.193317 0.000000,
        1.657480 -0.193317 0.000000,
        1.500000 -0.193317 0.039370,
        1.657480 -0.193317 0.039370,
      ]
    }
    coordIndex [
      2, 3, 0, -1,
      0, 3, 1, -1,
    ]
  }
}

Shape {
  appearance Appearance {
    material Material {
      diffuseColor 0.7529 0.7529 0.7529
      specularColor 0.3765 0.3765 0.3765
      ambientIntensity 0.2
      transparency 0.0000
      shininess 0.5
    }
  }
  geometry IndexedFaceSet {
    ccw TRUE
    solid FALSE
    coord DEF co Coordinate {
      point [
        1.641328 -0.104482 0.000000,
        1.641328 -0.179184 0.000000,
        1.592873 -0.179184 0.000000,
        1.592873 -0.104482 0.000000,
        1.576721 -0.104482 0.000000,
        1.500000 -0.104482 0.000000,
        1.500000 -0.193317 0.000000,
        1.657480 -0.193317 0.000000,
        1.657480 -0.104482 0.000000,
        1.516152 -0.104482 0.000000,
        1.516152 -0.179184 0.000000,
        1.576721 -0.179184 0.000000,
        1.500000 -0.193317 0.039370,
        1.657480 -0.193317 0.039370,
        1.657480 -0.104482 0.039370,
        1.641328 -0.104482 0.039370,
        1.641328 -0.179184 0.039370,
        1.592873 -0.179184 0.039370,
        1.592873 -0.104482 0.039370,
        1.576721 -0.104482 0.039370,
        1.576721 -0.179184 0.039370,
        1.516152 -0.179184 0.039370,
        1.516152 -0.104482 0.039370,
        1.500000 -0.104482 0.039370,
      ]
    }
    coordIndex [
      13, 14, 7, -1,
      7, 14, 8, -1,
      14, 15, 8, -1,
      8, 15, 0, -1,
      15, 16, 0, -1,
      0, 16, 1, -1,
      16, 17, 1, -1,
      1, 17, 2, -1,
      17, 18, 2, -1,
      2, 18, 3, -1,
      18, 19, 3, -1,
      3, 19, 4, -1,
      19, 20, 4, -1,
      4, 20, 11, -1,
      20, 21, 11, -1,
      11, 21, 10, -1,
      21, 22, 10, -1,
      10, 22, 9, -1,
      22, 23, 9, -1,
      9, 23, 5, -1,
      23, 12, 5, -1,
      5, 12, 6, -1,
    ]
  }
}

Shape {
  appearance Appearance {
    material Material {
      diffuseColor 0.1490 0.1490 0.1490
      specularColor 0.0745 0.0745 0.0745
      ambientIntensity 0.2
      transparency 0.0000
      shininess 0.5
    }
  }
  geometry IndexedFaceSet {
    ccw TRUE
    solid FALSE
    coord DEF co Coordinate {
      point [
        1.500000 -0.193317 0.039370,
        1.657480 -0.193317 0.039370,
        1.657480 -0.104482 0.039370,
        1.641328 -0.104482 0.039370,
        1.641328 -0.179184 0.039370,
        1.592873 -0.179184 0.039370,
        1.592873 -0.104482 0.039370,
        1.576721 -0.104482 0.039370,
        1.576721 -0.179184 0.039370,
        1.516152 -0.179184 0.039370,
        1.516152 -0.104482 0.039370,
        1.500000 -0.104482 0.039370,
      ]
    }
    coordIndex [
      0, 11, 10, -1,
      10, 9, 0, -1,
      0, 9, 8, -1,
      0, 8, 1, -1,
      3, 2, 4, -1,
      4, 2, 1, -1,
      4, 1, 5, -1,
      5, 1, 8, -1,
      5, 8, 6, -1,
      6, 8, 7, -1,
    ]
  }
}

Shape {
  appearance Appearance {
    material Material {
      diffuseColor 0.7529 0.7529 0.7529
      specularColor 0.3765 0.3765 0.3765
      ambientIntensity 0.2
      transparency 0.0000
      shininess 0.5
    }
  }
  geometry IndexedFaceSet {
    ccw TRUE
    solid FALSE
    coord DEF co Coordinate {
      point [
        1.659499 -0.284706 0.000000,
        1.653452 -0.255886 0.000000,
        1.643463 -0.239768 0.000000,
        1.634757 -0.230578 0.000000,
        1.628583 -0.225621 0.000000,
        1.619120 -0.237987 0.000000,
        1.661519 -0.294329 0.000000,
        1.661519 -0.294329 0.039370,
        1.653452 -0.255886 0.039370,
        1.643463 -0.239768 0.039370,
        1.634757 -0.230578 0.039370,
        1.628583 -0.225621 0.039370,
        1.619120 -0.237987 0.039370,
      ]
    }
    coordIndex [
      6, 7, 0, -1,
      0, 7, 8, -1,
      0, 8, 1, -1,
      1, 8, 9, -1,
      1, 9, 2, -1,
      2, 9, 10, -1,
      2, 10, 3, -1,
      3, 10, 11, -1,
      3, 11, 4, -1,
      11, 12, 4, -1,
      4, 12, 5, -1,
    ]
  }
}

Shape {
  appearance Appearance {
    material Material {
      diffuseColor 0.1490 0.1490 0.1490
      specularColor 0.0745 0.0745 0.0745
      ambientIntensity 0.2
      transparency 0.0000
      shininess 0.5
    }
  }
  geometry IndexedFaceSet {
    ccw TRUE
    solid FALSE
    coord DEF co Coordinate {
      point [
        1.645367 -0.295213 0.000000,
        1.619120 -0.237987 0.000000,
        1.638907 -0.263502 0.000000,
        1.643683 -0.278374 0.000000,
        1.645117 -0.288698 0.000000,
        1.619120 -0.237987 0.039370,
        1.645367 -0.295213 0.039370,
        1.645117 -0.288698 0.039370,
        1.643683 -0.278374 0.039370,
        1.638907 -0.263502 0.039370,
      ]
    }
    coordIndex [
      6, 0, 4, -1,
      6, 4, 7, -1,
      7, 4, 3, -1,
      7, 3, 8, -1,
      8, 3, 2, -1,
      8, 2, 9, -1,
      9, 2, 1, -1,
      9, 1, 5, -1,
    ]
  }
}

Shape {
  appearance Appearance {
    material Material {
      diffuseColor 0.7529 0.7529 0.7529
      specularColor 0.3765 0.3765 0.3765
      ambientIntensity 0.2
      transparency 0.0000
      shininess 0.5
    }
  }
  geometry IndexedFaceSet {
    ccw TRUE
    solid FALSE
    coord DEF co Coordinate {
      point [
        1.636731 -0.330126 0.000000,
        1.614742 -0.354538 0.000000,
        1.645367 -0.295213 0.000000,
        1.584905 -0.364679 0.000000,
        1.578582 -0.364930 0.000000,
        1.546128 -0.356772 0.000000,
        1.523319 -0.334974 0.000000,
        1.512611 -0.303985 0.000000,
        1.512114 -0.294235 0.000000,
        1.645367 -0.295213 0.039370,
        1.578582 -0.364930 0.039370,
        1.584905 -0.364679 0.039370,
        1.614742 -0.354538 0.039370,
        1.636731 -0.330126 0.039370,
        1.512114 -0.294235 0.039370,
        1.512611 -0.303985 0.039370,
        1.523319 -0.334974 0.039370,
        1.546128 -0.356772 0.039370,
      ]
    }
    coordIndex [
      10, 4, 3, -1,
      10, 3, 11, -1,
      11, 3, 1, -1,
      11, 1, 12, -1,
      12, 1, 0, -1,
      12, 0, 13, -1,
      13, 0, 2, -1,
      13, 2, 9, -1,
      14, 8, 7, -1,
      14, 7, 15, -1,
      15, 7, 6, -1,
      15, 6, 16, -1,
      16, 6, 5, -1,
      16, 5, 17, -1,
      17, 5, 4, -1,
      17, 4, 10, -1,
    ]
  }
}

Shape {
  appearance Appearance {
    material Material {
      diffuseColor 0.1490 0.1490 0.1490
      specularColor 0.0745 0.0745 0.0745
      ambientIntensity 0.2
      transparency 0.0000
      shininess 0.5
    }
  }
  geometry IndexedFaceSet {
    ccw TRUE
    solid FALSE
    coord DEF co Coordinate {
      point [
        1.538361 -0.237987 0.000000,
        1.518786 -0.263115 0.000000,
        1.512114 -0.294235 0.000000,
        1.512114 -0.294235 0.039370,
        1.538361 -0.237987 0.039370,
        1.518786 -0.263115 0.039370,
      ]
    }
    coordIndex [
      4, 0, 1, -1,
      4, 1, 5, -1,
      5, 1, 2, -1,
      5, 2, 3, -1,
    ]
  }
}

Shape {
  appearance Appearance {
    material Material {
      diffuseColor 0.7529 0.7529 0.7529
      specularColor 0.3765 0.3765 0.3765
      ambientIntensity 0.2
      transparency 0.0000
      shininess 0.5
    }
  }
  geometry IndexedFaceSet {
    ccw TRUE
    solid FALSE
    coord DEF co Coordinate {
      point [
        1.528991 -0.225621 0.000000,
        1.538361 -0.237987 0.000000,
        1.504166 -0.255838 0.000000,
        1.498056 -0.273744 0.000000,
        1.496246 -0.286246 0.000000,
        1.495962 -0.294140 0.000000,
        1.538361 -0.237987 0.039370,
        1.528991 -0.225621 0.039370,
        1.495962 -0.294140 0.039370,
        1.496246 -0.286246 0.039370,
        1.498056 -0.273744 0.039370,
        1.504166 -0.255838 0.039370,
      ]
    }
    coordIndex [
      6, 7, 1, -1,
      1, 7, 0, -1,
      8, 5, 4, -1,
      8, 4, 9, -1,
      9, 4, 3, -1,
      9, 3, 10, -1,
      10, 3, 2, -1,
      10, 2, 11, -1,
      11, 2, 0, -1,
      11, 0, 7, -1,
    ]
  }
}

Shape {
  appearance Appearance {
    material Material {
      diffuseColor 0.1490 0.1490 0.1490
      specularColor 0.0745 0.0745 0.0745
      ambientIntensity 0.2
      transparency 0.0000
      shininess 0.5
    }
  }
  geometry IndexedFaceSet {
    ccw TRUE
    solid FALSE
    coord DEF co Coordinate {
      point [
        1.500000 -0.471936 0.000000,
        1.657480 -0.471936 0.000000,
        1.619891 -0.368922 0.000000,
        1.579655 -0.379063 0.000000,
        1.549710 -0.374276 0.000000,
        1.523502 -0.359094 0.000000,
        1.518189 -0.354103 0.000000,
        1.495962 -0.294140 0.000000,
        1.502366 -0.329809 0.000000,
        1.510740 -0.345135 0.000000,
        1.659499 -0.306844 0.000000,
        1.661271 -0.301293 0.000000,
        1.661519 -0.294329 0.000000,
        1.648283 -0.341988 0.000000,
        1.661519 -0.294329 0.039370,
        1.653452 -0.255886 0.039370,
        1.643463 -0.239768 0.039370,
        1.634757 -0.230578 0.039370,
        1.628583 -0.225621 0.039370,
        1.619120 -0.237987 0.039370,
        1.645367 -0.295213 0.039370,
        1.645117 -0.288698 0.039370,
        1.643683 -0.278374 0.039370,
        1.638907 -0.263502 0.039370,
        1.578582 -0.364930 0.039370,
        1.584905 -0.364679 0.039370,
        1.614742 -0.354538 0.039370,
        1.636731 -0.330126 0.039370,
        1.512114 -0.294235 0.039370,
        1.512611 -0.303985 0.039370,
        1.523319 -0.334974 0.039370,
        1.546128 -0.356772 0.039370,
        1.538361 -0.237987 0.039370,
        1.518786 -0.263115 0.039370,
        1.528991 -0.225621 0.039370,
        1.495962 -0.294140 0.039370,
        1.496246 -0.286246 0.039370,
        1.498056 -0.273744 0.039370,
        1.504166 -0.255838 0.039370,
        1.523502 -0.359094 0.039370,
        1.518189 -0.354103 0.039370,
        1.510740 -0.345135 0.039370,
        1.502366 -0.329809 0.039370,
        1.579655 -0.379063 0.039370,
        1.549710 -0.374276 0.039370,
        1.661271 -0.301293 0.039370,
        1.648283 -0.341988 0.039370,
        1.619891 -0.368922 0.039370,
        1.500000 -0.471936 0.039370,
        1.657480 -0.471936 0.039370,
      ]
    }
    coordIndex [
      39, 5, 6, -1,
      39, 6, 40, -1,
      40, 6, 9, -1,
      40, 9, 41, -1,
      41, 9, 8, -1,
      41, 8, 42, -1,
      42, 8, 7, -1,
      42, 7, 35, -1,
      43, 3, 4, -1,
      43, 4, 44, -1,
      44, 4, 5, -1,
      44, 5, 39, -1,
      14, 12, 11, -1,
      14, 11, 45, -1,
      45, 11, 10, -1,
      45, 10, 46, -1,
      10, 13, 46, -1,
      46, 13, 2, -1,
      46, 2, 47, -1,
      47, 2, 3, -1,
      47, 3, 43, -1,
      34, 32, 38, -1,
      38, 32, 33, -1,
      43, 44, 31, -1,
      31, 44, 30, -1,
      30, 44, 39, -1,
      30, 39, 40, -1,
      19, 18, 17, -1,
      19, 17, 23, -1,
      23, 17, 16, -1,
      23, 16, 15, -1,
      40, 41, 30, -1,
      30, 41, 42, -1,
      30, 42, 29, -1,
      29, 42, 35, -1,
      29, 35, 28, -1,
      28, 35, 36, -1,
      28, 36, 33, -1,
      33, 36, 37, -1,
      33, 37, 38, -1,
      31, 24, 43, -1,
      43, 24, 25, -1,
      43, 25, 47, -1,
      47, 25, 26, -1,
      47, 26, 46, -1,
      46, 26, 27, -1,
      46, 27, 45, -1,
      45, 27, 20, -1,
      45, 20, 14, -1,
      14, 20, 21, -1,
      14, 21, 15, -1,
      15, 21, 22, -1,
      15, 22, 23, -1,
      48, 49, 0, -1,
      0, 49, 1, -1,
    ]
  }
}

Shape {
  appearance Appearance {
    material Material {
      diffuseColor 0.7529 0.7529 0.7529
      specularColor 0.3765 0.3765 0.3765
      ambientIntensity 0.2
      transparency 0.0000
      shininess 0.5
    }
  }
  geometry IndexedFaceSet {
    ccw TRUE
    solid FALSE
    coord DEF co Coordinate {
      point [
        1.500000 -0.397234 0.000000,
        1.500000 -0.471936 0.000000,
        1.657480 -0.471936 0.000000,
        1.657480 -0.457803 0.000000,
        1.516152 -0.457803 0.000000,
        1.516152 -0.397234 0.000000,
        1.500000 -0.471936 0.039370,
        1.657480 -0.471936 0.039370,
        1.657480 -0.457803 0.039370,
        1.516152 -0.457803 0.039370,
        1.516152 -0.397234 0.039370,
        1.500000 -0.397234 0.039370,
      ]
    }
    coordIndex [
      7, 8, 2, -1,
      2, 8, 3, -1,
      8, 9, 3, -1,
      3, 9, 4, -1,
      9, 10, 4, -1,
      4, 10, 5, -1,
      10, 11, 5, -1,
      5, 11, 0, -1,
      11, 6, 0, -1,
      0, 6, 1, -1,
    ]
  }
}

Shape {
  appearance Appearance {
    material Material {
      diffuseColor 0.1490 0.1490 0.1490
      specularColor 0.0745 0.0745 0.0745
      ambientIntensity 0.2
      transparency 0.0000
      shininess 0.5
    }
  }
  geometry IndexedFaceSet {
    ccw TRUE
    solid FALSE
    coord DEF co Coordinate {
      point [
        1.566626 0.176503 0.000000,
        1.626785 0.148742 0.000000,
        1.566626 0.120224 0.000000,
        1.641328 -0.062083 0.000000,
        1.516152 -0.062083 0.000000,
        1.641328 -0.051011 0.000000,
        1.640587 -0.026661 -0.000000,
        1.636912 -0.002619 0.000000,
        1.628518 0.014799 0.000000,
        1.608233 0.031970 0.000000,
        1.576784 0.038865 -0.000000,
        1.557058 0.036339 0.000000,
        1.534221 0.023602 0.000000,
        1.520158 0.001009 0.000000,
        1.516789 -0.021355 0.000000,
        1.516152 -0.044007 0.000000,
        1.500000 -0.471936 0.039370,
        1.657480 -0.471936 0.039370,
        1.657480 -0.457803 0.039370,
        1.516152 -0.457803 0.039370,
        1.516152 -0.397234 0.039370,
        1.500000 -0.397234 0.039370,
      ]
    }
    coordIndex [
      18, 17, 19, -1,
      19, 17, 16, -1,
      19, 16, 20, -1,
      20, 16, 21, -1,
      0, 1, 2, -1,
      3, 4, 5, -1,
      5, 4, 15, -1,
      5, 15, 6, -1,
      6, 15, 14, -1,
      6, 14, 7, -1,
      13, 12, 14, -1,
      14, 12, 11, -1,
      14, 11, 10, -1,
      10, 9, 14, -1,
      14, 9, 8, -1,
      14, 8, 7, -1,
    ]
  }
}
